<?xml version="1.0" encoding="utf-8" ?><svg xmlns="http://www.w3.org/2000/svg" xmlns:xlink="http://www.w3.org/1999/xlink" width="1024" height="1024" viewBox="0 0 1024 1024"><path fill="#223B4F" d="M645.187 459.175C649.697 458.77 653.578 458.708 658.08 459.351C671.525 461.28 683.632 468.53 691.68 479.471C703.027 494.846 701.463 515.543 700.823 533.565C700.52 542.114 701.203 550.802 699.819 559.385C697.814 572.639 690.507 584.509 679.576 592.269C667.567 600.786 654.293 602.996 639.095 600.634C626.982 598.752 605.284 587.602 606.848 572.245C607.142 569.358 609.981 566.58 612.396 564.94L612.87 564.625C624.962 560.461 626.441 571.327 634.138 575.441C654.606 586.382 675.598 575.39 677.849 552.356C670.825 554.062 664.23 558.29 656.772 559.121C590.137 566.552 578.813 467.439 645.187 459.175ZM652.247 536.931C667.405 536.179 679.179 523.446 678.746 508.276C678.313 493.106 665.831 481.066 650.655 481.18C640.55 481.256 631.276 486.791 626.413 495.649C621.55 504.507 621.858 515.303 627.219 523.869C632.58 532.435 642.154 537.432 652.247 536.931Z"/><path fill="#223B4F" d="M419.776 458.701C440.158 457.003 460.999 469.673 469.151 488.385C474.621 501.088 474.786 515.45 469.609 528.275C461.157 549.02 440.496 561.077 418.352 559.227C410.177 558.543 403.894 555.629 396.426 552.548C396.219 554.986 396.27 558.818 396.234 561.375C396.217 568.537 397.899 590.265 393.67 596.02C387.742 604.088 373.923 601.785 373.279 589.153C372.645 576.72 373.061 564.066 373.074 551.419C373.105 543.614 373.059 535.809 372.935 528.004C372.756 518.076 372.065 508.302 374.056 498.497C375.587 490.717 378.965 483.419 383.904 477.216C393.404 465.193 404.99 460.502 419.776 458.701ZM427.27 536.805C442.606 534.557 453.224 520.315 451 504.976C448.777 489.637 434.552 478.996 419.21 481.194C403.832 483.398 393.162 497.662 395.39 513.036C397.618 528.41 411.9 539.058 427.27 536.805Z"/><path fill="#223B4F" d="M167.77 431.651C172.174 431.017 177.275 431.879 181.748 431.824C202.175 431.574 227.195 428.243 243.067 444.261C260.142 461.492 259.135 493.166 241.946 509.949C231.905 519.751 219.225 522.799 205.625 522.547L178.105 522.457C179.402 534.705 182.404 569.748 159.567 558.269C152.886 554.91 154.407 535.844 154.414 529.289L154.452 501.27L154.535 462.445C154.607 455.378 154.59 448.172 155.161 441.134C155.75 433.884 161.852 432.469 167.77 431.651ZM178.449 501.042L179.123 500.969C193.31 499.542 211.156 504.091 224.144 494.345C233.514 483.679 235.171 468.203 223.428 458.575C212.656 449.742 191.485 454.557 178.435 453.171C178.046 467.972 177.876 486.306 178.449 501.042Z"/><path fill="#223B4F" d="M306.416 457.725C324.71 455.588 342.742 463.441 353.638 478.291C364.534 493.14 366.615 512.698 359.088 529.508C351.56 546.318 335.584 557.789 317.25 559.549C289.306 562.232 264.413 541.914 261.442 513.999C258.472 486.084 278.533 460.983 306.416 457.725ZM334.189 501.753C334.579 496.916 337.685 494.532 334.42 488.772C329.194 479.553 319.611 480.316 311.627 484.741C300.121 501.917 323.492 516.796 334.189 501.753Z"/><path fill="#EBA561" d="M307.052 468.778C329.001 465.749 349.245 481.099 352.251 503.051C355.256 525.003 339.884 545.231 317.929 548.213C296.007 551.191 275.817 535.847 272.815 513.928C269.814 492.009 285.137 471.802 307.052 468.778ZM334.189 501.753C334.579 496.916 337.685 494.532 334.42 488.772C329.194 479.553 319.611 480.316 311.627 484.741C300.121 501.917 323.492 516.796 334.189 501.753Z"/><path fill="#223B4F" d="M334.189 501.753C334.442 502.179 334.693 502.56 334.833 503.048C338.307 515.158 330.999 527.938 319.111 531.27C313.356 532.832 307.216 532.026 302.059 529.032C296.448 525.875 292.324 520.614 290.597 514.411C286.196 498.211 297.237 488.356 311.627 484.741C300.121 501.917 323.492 516.796 334.189 501.753Z"/><path fill="#223B4F" d="M720.387 421.566C735.612 421.105 734.078 434.749 734.048 445.742C734.031 452.288 734.006 458.892 734.004 465.44C749.836 458.672 762.257 455.531 778.639 463.98C788.995 469.311 796.777 478.577 800.238 489.699C805.228 505.935 800.432 526.019 802.482 541.361C805.678 565.277 781.94 563.365 779.824 551.706C777.187 537.18 781.456 514.996 778.891 499.536C778.474 497.521 777.642 495.464 776.671 493.653C773.756 488.218 768.579 483.967 762.615 482.323C756.634 480.674 750.003 481.858 744.736 485.074C723.665 497.939 738.785 532.06 733.328 551.531C732.458 554.635 730.696 557.348 727.814 558.914C724.821 560.541 721.914 560.735 718.708 559.59C715.857 558.572 713.311 556.797 712.043 553.981C711.267 552.257 711.064 550.362 710.972 548.492C710.42 537.251 710.203 431.007 711.937 427.408C713.454 424.26 717.296 422.608 720.387 421.566Z"/><path fill="#223B4F" d="M515.218 429.678C523.415 428.685 539.218 431.312 546.361 435.815C551.613 439.125 552.915 441.5 554.228 447.01C549.697 469.018 532.829 451.387 519.717 451.118C511.178 450.943 502.574 454.991 502.424 464.799C501.927 477.987 521.496 483.34 532.974 487.055C560.59 495.991 567.887 529.554 548.117 550.088C539.526 559.011 526.409 561.3 513.405 561.005C502.409 559.814 492.934 557.302 483.845 550.722C477.838 546.892 474.664 538.663 480.689 532.643C491.852 521.49 505.98 542.301 519.645 539.075C528.389 537.011 537.105 532.787 535.68 522.906C533.774 509.69 517.892 506.867 507.778 502.334C492.984 496.261 481.851 489.266 479.555 472.224C476.084 446.471 491.599 433.331 515.218 429.678Z"/><path fill="#223B4F" d="M821.305 429.065C838.33 428.366 835.842 448.425 834.656 460.109L835.113 460.089C840.851 459.85 867.088 458.635 870.025 463.124C885.402 486.625 847.565 482.663 835.099 482.294C835.049 486.547 834.708 491.978 834.96 496.311C835.674 508.539 830.698 529.825 845.914 535.031C851.805 537.046 859.78 536.388 865.952 536.399C876.955 541.855 875.357 552.408 865.381 558.381C861.347 558.53 857.309 558.558 853.273 558.464C841.763 558.086 830.694 554.475 822.739 545.826C817.952 540.543 814.636 534.094 813.124 527.127C810.8 516.523 812.339 495.473 812.021 484.077C811.58 468.256 811.474 452.09 812.127 436.286C814.73 431.822 816.454 430.667 821.305 429.065Z"/><path fill="#223B4F" d="M576.514 459.557C586.775 458.896 591.09 461.489 591.199 472.373C591.463 498.816 593.012 526.277 590.826 552.65C590.589 555.508 586.01 558.231 583.696 559.407C576.479 560.275 572.858 558.453 569.094 552.349C568.486 542.551 567.892 471.024 569.534 466.033C570.645 462.656 573.553 461.083 576.514 459.557Z"/><path fill="#223B4F" d="M579.224 421.222C587.266 420.739 594.226 426.756 594.911 434.783C595.597 442.81 589.757 449.919 581.749 450.806C576.388 451.399 571.126 449.039 568.004 444.639C564.883 440.24 564.392 434.494 566.723 429.629C569.054 424.764 573.839 421.546 579.224 421.222Z"/></svg>